<?xml version="1.0" encoding="utf-8" standalone="no"?>
<!DOCTYPE svg PUBLIC "-//W3C//DTD SVG 1.1//EN"
  "http://www.w3.org/Graphics/SVG/1.1/DTD/svg11.dtd">
<!-- Created with matplotlib (http://matplotlib.org/) -->
<svg height="360pt" version="1.1" viewBox="0 0 720 360" width="720pt" xmlns="http://www.w3.org/2000/svg" xmlns:xlink="http://www.w3.org/1999/xlink">
 <defs>
  <style type="text/css">
*{stroke-linecap:butt;stroke-linejoin:round;}
  </style>
 </defs>
 <g id="figure_1">
  <g id="patch_1">
   <path d="M 0 360 
L 720 360 
L 720 0 
L 0 0 
z
" style="fill:none;"/>
  </g>
  <g id="axes_1">
   <g id="patch_2">
    <path d="M 90 315 
L 648 315 
L 648 43.2 
L 90 43.2 
z
" style="fill:none;"/>
   </g>
   <g id="PolyCollection_1">
    <defs>
     <path d="M 257.981539 -57.354545 
L 256.818461 -57.354545 
L 256.599486 -59.356379 
L 256.328064 -61.358212 
L 256.003598 -63.360045 
L 255.630121 -65.361878 
L 255.217054 -67.363711 
L 254.779266 -69.365545 
L 254.336235 -71.367378 
L 253.910196 -73.369211 
L 253.523414 -75.371044 
L 253.194862 -77.372877 
L 252.93683 -79.37471 
L 252.752064 -81.376544 
L 252.632052 -83.378377 
L 252.556926 -85.38021 
L 252.497215 -87.382043 
L 252.417381 -89.383876 
L 252.280692 -91.38571 
L 252.054772 -93.387543 
L 251.716924 -95.389376 
L 251.258341 -97.391209 
L 250.686438 -99.393042 
L 250.024794 -101.394876 
L 249.310592 -103.396709 
L 248.589838 -105.398542 
L 247.910982 -107.400375 
L 247.317779 -109.402208 
L 246.842261 -111.404041 
L 246.498505 -113.405875 
L 246.277597 -115.407708 
L 246.143826 -117.409541 
L 246.03193 -119.411374 
L 245.845199 -121.413207 
L 245.454516 -123.415041 
L 244.698962 -125.416874 
L 243.389228 -127.418707 
L 241.315562 -129.42054 
L 238.26204 -131.422373 
L 234.028335 -133.424207 
L 228.458776 -135.42604 
L 221.476508 -137.427873 
L 213.118275 -139.429706 
L 203.563466 -141.431539 
L 193.15009 -143.433372 
L 182.371043 -145.435206 
L 171.846474 -147.437039 
L 162.272145 -149.438872 
L 154.348612 -151.440705 
L 148.700716 -153.442538 
L 145.8 -155.444372 
L 145.903356 -157.446205 
L 149.01892 -159.448038 
L 154.905469 -161.449871 
L 163.105324 -163.451704 
L 173.004517 -165.453537 
L 183.909264 -167.455371 
L 195.125565 -169.457204 
L 206.029464 -171.459037 
L 216.118632 -173.46087 
L 225.040542 -175.462703 
L 232.597342 -177.464537 
L 238.731469 -179.46637 
L 243.498434 -181.468203 
L 247.033764 -183.470036 
L 249.52023 -185.471869 
L 251.159631 -187.473703 
L 252.151306 -189.475536 
L 252.677698 -191.477369 
L 252.896038 -193.479202 
L 252.934616 -195.481035 
L 252.892084 -197.482868 
L 252.838616 -199.484702 
L 252.818174 -201.486535 
L 252.851583 -203.488368 
L 252.940358 -205.490201 
L 253.071256 -207.492034 
L 253.221464 -209.493868 
L 253.364112 -211.495701 
L 253.473667 -213.497534 
L 253.530637 -215.499367 
L 253.525037 -217.5012 
L 253.458197 -219.503034 
L 253.342706 -221.504867 
L 253.200556 -223.5067 
L 253.059841 -225.508533 
L 252.95055 -227.510366 
L 252.90018 -229.512199 
L 252.929854 -231.514033 
L 253.05157 -233.515866 
L 253.266924 -235.517699 
L 253.567452 -237.519532 
L 253.936381 -239.521365 
L 254.351382 -241.523199 
L 254.787791 -243.525032 
L 255.221721 -245.526865 
L 255.632607 -247.528698 
L 256.004886 -249.530531 
L 256.328713 -251.532364 
L 256.599804 -253.534198 
L 256.818613 -255.536031 
L 257.981387 -255.536031 
L 257.981387 -255.536031 
L 258.200196 -253.534198 
L 258.471287 -251.532364 
L 258.795114 -249.530531 
L 259.167393 -247.528698 
L 259.578279 -245.526865 
L 260.012209 -243.525032 
L 260.448618 -241.523199 
L 260.863619 -239.521365 
L 261.232548 -237.519532 
L 261.533076 -235.517699 
L 261.74843 -233.515866 
L 261.870146 -231.514033 
L 261.89982 -229.512199 
L 261.84945 -227.510366 
L 261.740159 -225.508533 
L 261.599444 -223.5067 
L 261.457294 -221.504867 
L 261.341803 -219.503034 
L 261.274963 -217.5012 
L 261.269363 -215.499367 
L 261.326333 -213.497534 
L 261.435888 -211.495701 
L 261.578536 -209.493868 
L 261.728744 -207.492034 
L 261.859642 -205.490201 
L 261.948417 -203.488368 
L 261.981826 -201.486535 
L 261.961384 -199.484702 
L 261.907916 -197.482868 
L 261.865384 -195.481035 
L 261.903962 -193.479202 
L 262.122302 -191.477369 
L 262.648694 -189.475536 
L 263.640369 -187.473703 
L 265.27977 -185.471869 
L 267.766236 -183.470036 
L 271.301566 -181.468203 
L 276.068531 -179.46637 
L 282.202658 -177.464537 
L 289.759458 -175.462703 
L 298.681368 -173.46087 
L 308.770536 -171.459037 
L 319.674435 -169.457204 
L 330.890736 -167.455371 
L 341.795483 -165.453537 
L 351.694676 -163.451704 
L 359.894531 -161.449871 
L 365.78108 -159.448038 
L 368.896644 -157.446205 
L 369 -155.444372 
L 366.099284 -153.442538 
L 360.451388 -151.440705 
L 352.527855 -149.438872 
L 342.953526 -147.437039 
L 332.428957 -145.435206 
L 321.64991 -143.433372 
L 311.236534 -141.431539 
L 301.681725 -139.429706 
L 293.323492 -137.427873 
L 286.341224 -135.42604 
L 280.771665 -133.424207 
L 276.53796 -131.422373 
L 273.484438 -129.42054 
L 271.410772 -127.418707 
L 270.101038 -125.416874 
L 269.345484 -123.415041 
L 268.954801 -121.413207 
L 268.76807 -119.411374 
L 268.656174 -117.409541 
L 268.522403 -115.407708 
L 268.301495 -113.405875 
L 267.957739 -111.404041 
L 267.482221 -109.402208 
L 266.889018 -107.400375 
L 266.210162 -105.398542 
L 265.489408 -103.396709 
L 264.775206 -101.394876 
L 264.113562 -99.393042 
L 263.541659 -97.391209 
L 263.083076 -95.389376 
L 262.745228 -93.387543 
L 262.519308 -91.38571 
L 262.382619 -89.383876 
L 262.302785 -87.382043 
L 262.243074 -85.38021 
L 262.167948 -83.378377 
L 262.047936 -81.376544 
L 261.86317 -79.37471 
L 261.605138 -77.372877 
L 261.276586 -75.371044 
L 260.889804 -73.369211 
L 260.463765 -71.367378 
L 260.020734 -69.365545 
L 259.582946 -67.363711 
L 259.169879 -65.361878 
L 258.796402 -63.360045 
L 258.471936 -61.358212 
L 258.200514 -59.356379 
L 257.981539 -57.354545 
z
" id="mf7af536011" style="stroke:#ffffff;stroke-width:3;"/>
    </defs>
    <g clip-path="url(#p87c35b5052)">
     <use style="stroke:#ffffff;stroke-width:3;" x="0" xlink:href="#mf7af536011" y="360"/>
    </g>
   </g>
   <g id="PolyCollection_2">
    <defs>
     <path d="M 481.079236 -69.206081 
L 480.120764 -69.206081 
L 479.938617 -71.582236 
L 479.712676 -73.958392 
L 479.442714 -76.334547 
L 479.132658 -78.710702 
L 478.791319 -81.086857 
L 478.432571 -83.463013 
L 478.074756 -85.839168 
L 477.739258 -88.215323 
L 477.44829 -90.591479 
L 477.222126 -92.967634 
L 477.076103 -95.343789 
L 477.017794 -97.719944 
L 477.044654 -100.0961 
L 477.142344 -102.472255 
L 477.283705 -104.84841 
L 477.428172 -107.224566 
L 477.521274 -109.600721 
L 477.493914 -111.976876 
L 477.261285 -114.353032 
L 476.721638 -116.729187 
L 475.755601 -119.105342 
L 474.227244 -121.481497 
L 471.988376 -123.857653 
L 468.88764 -126.233808 
L 464.785483 -128.609963 
L 459.575119 -130.986119 
L 453.208082 -133.362274 
L 445.721254 -135.738429 
L 437.260588 -138.114584 
L 428.095796 -140.49074 
L 418.620423 -142.866895 
L 409.333343 -145.24305 
L 400.800676 -147.619206 
L 393.601091 -149.995361 
L 388.261366 -152.371516 
L 385.192093 -154.747671 
L 384.634472 -157.123827 
L 386.627844 -159.499982 
L 391.004025 -161.876137 
L 397.409537 -164.252293 
L 405.351513 -166.628448 
L 414.258842 -169.004603 
L 423.547857 -171.380758 
L 432.682076 -173.756914 
L 441.217783 -176.133069 
L 448.83093 -178.509224 
L 455.324836 -180.88538 
L 460.621536 -183.261535 
L 464.741744 -185.63769 
L 467.779114 -188.013845 
L 469.873864 -190.390001 
L 471.189481 -192.766156 
L 471.894571 -195.142311 
L 472.15034 -197.518467 
L 472.103119 -199.894622 
L 471.880694 -202.270777 
L 471.591038 -204.646932 
L 471.322249 -207.023088 
L 471.14285 -209.399243 
L 471.102074 -211.775398 
L 471.230127 -214.151554 
L 471.538714 -216.527709 
L 472.022197 -218.903864 
L 472.659684 -221.280019 
L 473.418156 -223.656175 
L 474.256491 -226.03233 
L 475.129957 -228.408485 
L 475.994655 -230.784641 
L 476.81131 -233.160796 
L 477.547985 -235.536951 
L 478.181459 -237.913106 
L 478.697318 -240.289262 
L 479.089018 -242.665417 
L 479.356345 -245.041572 
L 479.503746 -247.417728 
L 479.538935 -249.793883 
L 479.472036 -252.170038 
L 479.315321 -254.546193 
L 479.083422 -256.922349 
L 478.793745 -259.298504 
L 478.466729 -261.674659 
L 478.125648 -264.050815 
L 477.795728 -266.42697 
L 477.502559 -268.803125 
L 477.269934 -271.179281 
L 477.117483 -273.555436 
L 477.05849 -275.931591 
L 477.098359 -278.307746 
L 477.234034 -280.683902 
L 477.454523 -283.060057 
L 477.742447 -285.436212 
L 478.07635 -287.812368 
L 478.433349 -290.188523 
L 478.79169 -292.564678 
L 479.13283 -294.940833 
L 479.442793 -297.316989 
L 479.71271 -299.693144 
L 479.938632 -302.069299 
L 480.12077 -304.445455 
L 481.07923 -304.445455 
L 481.07923 -304.445455 
L 481.261368 -302.069299 
L 481.48729 -299.693144 
L 481.757207 -297.316989 
L 482.06717 -294.940833 
L 482.40831 -292.564678 
L 482.766651 -290.188523 
L 483.12365 -287.812368 
L 483.457553 -285.436212 
L 483.745477 -283.060057 
L 483.965966 -280.683902 
L 484.101641 -278.307746 
L 484.14151 -275.931591 
L 484.082517 -273.555436 
L 483.930066 -271.179281 
L 483.697441 -268.803125 
L 483.404272 -266.42697 
L 483.074352 -264.050815 
L 482.733271 -261.674659 
L 482.406255 -259.298504 
L 482.116578 -256.922349 
L 481.884679 -254.546193 
L 481.727964 -252.170038 
L 481.661065 -249.793883 
L 481.696254 -247.417728 
L 481.843655 -245.041572 
L 482.110982 -242.665417 
L 482.502682 -240.289262 
L 483.018541 -237.913106 
L 483.652015 -235.536951 
L 484.38869 -233.160796 
L 485.205345 -230.784641 
L 486.070043 -228.408485 
L 486.943509 -226.03233 
L 487.781844 -223.656175 
L 488.540316 -221.280019 
L 489.177803 -218.903864 
L 489.661286 -216.527709 
L 489.969873 -214.151554 
L 490.097926 -211.775398 
L 490.05715 -209.399243 
L 489.877751 -207.023088 
L 489.608962 -204.646932 
L 489.319306 -202.270777 
L 489.096881 -199.894622 
L 489.04966 -197.518467 
L 489.305429 -195.142311 
L 490.010519 -192.766156 
L 491.326136 -190.390001 
L 493.420886 -188.013845 
L 496.458256 -185.63769 
L 500.578464 -183.261535 
L 505.875164 -180.88538 
L 512.36907 -178.509224 
L 519.982217 -176.133069 
L 528.517924 -173.756914 
L 537.652143 -171.380758 
L 546.941158 -169.004603 
L 555.848487 -166.628448 
L 563.790463 -164.252293 
L 570.195975 -161.876137 
L 574.572156 -159.499982 
L 576.565528 -157.123827 
L 576.007907 -154.747671 
L 572.938634 -152.371516 
L 567.598909 -149.995361 
L 560.399324 -147.619206 
L 551.866657 -145.24305 
L 542.579577 -142.866895 
L 533.104204 -140.49074 
L 523.939412 -138.114584 
L 515.478746 -135.738429 
L 507.991918 -133.362274 
L 501.624881 -130.986119 
L 496.414517 -128.609963 
L 492.31236 -126.233808 
L 489.211624 -123.857653 
L 486.972756 -121.481497 
L 485.444399 -119.105342 
L 484.478362 -116.729187 
L 483.938715 -114.353032 
L 483.706086 -111.976876 
L 483.678726 -109.600721 
L 483.771828 -107.224566 
L 483.916295 -104.84841 
L 484.057656 -102.472255 
L 484.155346 -100.0961 
L 484.182206 -97.719944 
L 484.123897 -95.343789 
L 483.977874 -92.967634 
L 483.75171 -90.591479 
L 483.460742 -88.215323 
L 483.125244 -85.839168 
L 482.767429 -83.463013 
L 482.408681 -81.086857 
L 482.067342 -78.710702 
L 481.757286 -76.334547 
L 481.487324 -73.958392 
L 481.261383 -71.582236 
L 481.079236 -69.206081 
z
" id="m5f93c55bd2" style="stroke:#ffffff;stroke-width:3;"/>
    </defs>
    <g clip-path="url(#p87c35b5052)">
     <use style="stroke:#ffffff;stroke-width:3;" x="0" xlink:href="#m5f93c55bd2" y="360"/>
    </g>
   </g>
   <g id="patch_3">
    <path clip-path="url(#p87c35b5052)" d="M 369 203.554712 
L 369 203.554712 
L 369 203.554712 
L 369 203.554712 
z
" style="stroke:#000000;stroke-linejoin:miter;stroke-width:1.5;"/>
   </g>
   <g id="patch_4">
    <path clip-path="url(#p87c35b5052)" d="M 369 203.554712 
L 369 203.554712 
L 369 203.554712 
L 369 203.554712 
z
" style="stroke:#000000;stroke-linejoin:miter;stroke-width:1.5;"/>
   </g>
   <g id="matplotlib.axis_1">
    <g id="ytick_1">
     <g id="line2d_1">
      <defs>
       <path d="M 0 0 
L -3.5 0 
" id="m2b9698126f" style="stroke:#ffffff;stroke-width:3;"/>
      </defs>
      <g>
       <use style="fill:#ffffff;stroke:#ffffff;stroke-width:3;" x="90" xlink:href="#m2b9698126f" y="310.779934"/>
      </g>
     </g>
     <g id="text_1">
      <!-- -60 -->
      <defs>
       <path d="M 5.421875 35.890625 
L 36.078125 35.890625 
L 36.078125 21.6875 
L 5.421875 21.6875 
z
" id="DejaVuSans-Bold-2d"/>
       <path d="M 36.1875 35.984375 
Q 31.25 35.984375 28.78125 32.78125 
Q 26.3125 29.59375 26.3125 23.1875 
Q 26.3125 16.796875 28.78125 13.59375 
Q 31.25 10.40625 36.1875 10.40625 
Q 41.15625 10.40625 43.625 13.59375 
Q 46.09375 16.796875 46.09375 23.1875 
Q 46.09375 29.59375 43.625 32.78125 
Q 41.15625 35.984375 36.1875 35.984375 
z
M 59.421875 71 
L 59.421875 57.515625 
Q 54.78125 59.71875 50.671875 60.765625 
Q 46.578125 61.8125 42.671875 61.8125 
Q 34.28125 61.8125 29.59375 57.140625 
Q 24.90625 52.484375 24.125 43.3125 
Q 27.34375 45.703125 31.09375 46.890625 
Q 34.859375 48.09375 39.3125 48.09375 
Q 50.484375 48.09375 57.34375 41.546875 
Q 64.203125 35.015625 64.203125 24.421875 
Q 64.203125 12.703125 56.53125 5.640625 
Q 48.875 -1.421875 35.984375 -1.421875 
Q 21.78125 -1.421875 13.984375 8.171875 
Q 6.203125 17.78125 6.203125 35.40625 
Q 6.203125 53.46875 15.3125 63.796875 
Q 24.421875 74.125 40.28125 74.125 
Q 45.3125 74.125 50.046875 73.34375 
Q 54.78125 72.5625 59.421875 71 
z
" id="DejaVuSans-Bold-36"/>
       <path d="M 46 36.53125 
Q 46 50.203125 43.4375 55.78125 
Q 40.875 61.375 34.8125 61.375 
Q 28.765625 61.375 26.171875 55.78125 
Q 23.578125 50.203125 23.578125 36.53125 
Q 23.578125 22.703125 26.171875 17.03125 
Q 28.765625 11.375 34.8125 11.375 
Q 40.828125 11.375 43.40625 17.03125 
Q 46 22.703125 46 36.53125 
z
M 64.796875 36.375 
Q 64.796875 18.265625 56.984375 8.421875 
Q 49.171875 -1.421875 34.8125 -1.421875 
Q 20.40625 -1.421875 12.59375 8.421875 
Q 4.78125 18.265625 4.78125 36.375 
Q 4.78125 54.546875 12.59375 64.375 
Q 20.40625 74.21875 34.8125 74.21875 
Q 49.171875 74.21875 56.984375 64.375 
Q 64.796875 54.546875 64.796875 36.375 
z
" id="DejaVuSans-Bold-30"/>
      </defs>
      <g style="fill:#ffffff;" transform="translate(55.901562 316.478762)scale(0.15 -0.15)">
       <use xlink:href="#DejaVuSans-Bold-2d"/>
       <use x="41.503906" xlink:href="#DejaVuSans-Bold-36"/>
       <use x="111.083984" xlink:href="#DejaVuSans-Bold-30"/>
      </g>
     </g>
    </g>
    <g id="ytick_2">
     <g id="line2d_2">
      <g>
       <use style="fill:#ffffff;stroke:#ffffff;stroke-width:3;" x="90" xlink:href="#m2b9698126f" y="275.038193"/>
      </g>
     </g>
     <g id="text_2">
      <!-- -40 -->
      <defs>
       <path d="M 36.8125 57.421875 
L 16.21875 26.90625 
L 36.8125 26.90625 
z
M 33.6875 72.90625 
L 54.59375 72.90625 
L 54.59375 26.90625 
L 64.984375 26.90625 
L 64.984375 13.28125 
L 54.59375 13.28125 
L 54.59375 0 
L 36.8125 0 
L 36.8125 13.28125 
L 4.5 13.28125 
L 4.5 29.390625 
z
" id="DejaVuSans-Bold-34"/>
      </defs>
      <g style="fill:#ffffff;" transform="translate(55.901562 280.737021)scale(0.15 -0.15)">
       <use xlink:href="#DejaVuSans-Bold-2d"/>
       <use x="41.503906" xlink:href="#DejaVuSans-Bold-34"/>
       <use x="111.083984" xlink:href="#DejaVuSans-Bold-30"/>
      </g>
     </g>
    </g>
    <g id="ytick_3">
     <g id="line2d_3">
      <g>
       <use style="fill:#ffffff;stroke:#ffffff;stroke-width:3;" x="90" xlink:href="#m2b9698126f" y="239.296453"/>
      </g>
     </g>
     <g id="text_3">
      <!-- -20 -->
      <defs>
       <path d="M 28.8125 13.8125 
L 60.890625 13.8125 
L 60.890625 0 
L 7.90625 0 
L 7.90625 13.8125 
L 34.515625 37.3125 
Q 38.09375 40.53125 39.796875 43.609375 
Q 41.5 46.6875 41.5 50 
Q 41.5 55.125 38.0625 58.25 
Q 34.625 61.375 28.90625 61.375 
Q 24.515625 61.375 19.28125 59.5 
Q 14.0625 57.625 8.109375 53.90625 
L 8.109375 69.921875 
Q 14.453125 72.015625 20.65625 73.109375 
Q 26.859375 74.21875 32.8125 74.21875 
Q 45.90625 74.21875 53.15625 68.453125 
Q 60.40625 62.703125 60.40625 52.390625 
Q 60.40625 46.4375 57.328125 41.28125 
Q 54.25 36.140625 44.390625 27.484375 
z
" id="DejaVuSans-Bold-32"/>
      </defs>
      <g style="fill:#ffffff;" transform="translate(55.901562 244.995281)scale(0.15 -0.15)">
       <use xlink:href="#DejaVuSans-Bold-2d"/>
       <use x="41.503906" xlink:href="#DejaVuSans-Bold-32"/>
       <use x="111.083984" xlink:href="#DejaVuSans-Bold-30"/>
      </g>
     </g>
    </g>
    <g id="ytick_4">
     <g id="line2d_4">
      <g>
       <use style="fill:#ffffff;stroke:#ffffff;stroke-width:3;" x="90" xlink:href="#m2b9698126f" y="203.554712"/>
      </g>
     </g>
     <g id="text_4">
      <!-- 0 -->
      <g style="fill:#ffffff;" transform="translate(72.563281 209.25354)scale(0.15 -0.15)">
       <use xlink:href="#DejaVuSans-Bold-30"/>
      </g>
     </g>
    </g>
    <g id="ytick_5">
     <g id="line2d_5">
      <g>
       <use style="fill:#ffffff;stroke:#ffffff;stroke-width:3;" x="90" xlink:href="#m2b9698126f" y="167.812971"/>
      </g>
     </g>
     <g id="text_5">
      <!-- 20 -->
      <g style="fill:#ffffff;" transform="translate(62.126563 173.511799)scale(0.15 -0.15)">
       <use xlink:href="#DejaVuSans-Bold-32"/>
       <use x="69.580078" xlink:href="#DejaVuSans-Bold-30"/>
      </g>
     </g>
    </g>
    <g id="ytick_6">
     <g id="line2d_6">
      <g>
       <use style="fill:#ffffff;stroke:#ffffff;stroke-width:3;" x="90" xlink:href="#m2b9698126f" y="132.07123"/>
      </g>
     </g>
     <g id="text_6">
      <!-- 40 -->
      <g style="fill:#ffffff;" transform="translate(62.126563 137.770058)scale(0.15 -0.15)">
       <use xlink:href="#DejaVuSans-Bold-34"/>
       <use x="69.580078" xlink:href="#DejaVuSans-Bold-30"/>
      </g>
     </g>
    </g>
    <g id="ytick_7">
     <g id="line2d_7">
      <g>
       <use style="fill:#ffffff;stroke:#ffffff;stroke-width:3;" x="90" xlink:href="#m2b9698126f" y="96.32949"/>
      </g>
     </g>
     <g id="text_7">
      <!-- 60 -->
      <g style="fill:#ffffff;" transform="translate(62.126563 102.028318)scale(0.15 -0.15)">
       <use xlink:href="#DejaVuSans-Bold-36"/>
       <use x="69.580078" xlink:href="#DejaVuSans-Bold-30"/>
      </g>
     </g>
    </g>
    <g id="ytick_8">
     <g id="line2d_8">
      <g>
       <use style="fill:#ffffff;stroke:#ffffff;stroke-width:3;" x="90" xlink:href="#m2b9698126f" y="60.587749"/>
      </g>
     </g>
     <g id="text_8">
      <!-- 80 -->
      <defs>
       <path d="M 34.8125 32.625 
Q 29.546875 32.625 26.703125 29.734375 
Q 23.875 26.859375 23.875 21.484375 
Q 23.875 16.109375 26.703125 13.25 
Q 29.546875 10.40625 34.8125 10.40625 
Q 40.046875 10.40625 42.828125 13.25 
Q 45.609375 16.109375 45.609375 21.484375 
Q 45.609375 26.90625 42.828125 29.765625 
Q 40.046875 32.625 34.8125 32.625 
z
M 21.09375 38.8125 
Q 14.453125 40.828125 11.078125 44.96875 
Q 7.71875 49.125 7.71875 55.328125 
Q 7.71875 64.546875 14.59375 69.375 
Q 21.484375 74.21875 34.8125 74.21875 
Q 48.046875 74.21875 54.921875 69.40625 
Q 61.8125 64.59375 61.8125 55.328125 
Q 61.8125 49.125 58.421875 44.96875 
Q 55.03125 40.828125 48.390625 38.8125 
Q 55.8125 36.765625 59.59375 32.15625 
Q 63.375 27.546875 63.375 20.515625 
Q 63.375 9.671875 56.171875 4.125 
Q 48.96875 -1.421875 34.8125 -1.421875 
Q 20.609375 -1.421875 13.359375 4.125 
Q 6.109375 9.671875 6.109375 20.515625 
Q 6.109375 27.546875 9.890625 32.15625 
Q 13.671875 36.765625 21.09375 38.8125 
z
M 25.484375 53.421875 
Q 25.484375 49.078125 27.90625 46.734375 
Q 30.328125 44.390625 34.8125 44.390625 
Q 39.203125 44.390625 41.59375 46.734375 
Q 44 49.078125 44 53.421875 
Q 44 57.765625 41.59375 60.078125 
Q 39.203125 62.40625 34.8125 62.40625 
Q 30.328125 62.40625 27.90625 60.0625 
Q 25.484375 57.71875 25.484375 53.421875 
z
" id="DejaVuSans-Bold-38"/>
      </defs>
      <g style="fill:#ffffff;" transform="translate(62.126563 66.286577)scale(0.15 -0.15)">
       <use xlink:href="#DejaVuSans-Bold-38"/>
       <use x="69.580078" xlink:href="#DejaVuSans-Bold-30"/>
      </g>
     </g>
    </g>
    <g id="text_9">
     <!-- Scorechange -->
     <defs>
      <path d="M 59.90625 70.609375 
L 59.90625 55.171875 
Q 53.90625 57.859375 48.1875 59.21875 
Q 42.484375 60.59375 37.40625 60.59375 
Q 30.671875 60.59375 27.4375 58.734375 
Q 24.21875 56.890625 24.21875 52.984375 
Q 24.21875 50.046875 26.390625 48.40625 
Q 28.5625 46.78125 34.28125 45.609375 
L 42.28125 44 
Q 54.4375 41.546875 59.5625 36.5625 
Q 64.703125 31.59375 64.703125 22.40625 
Q 64.703125 10.359375 57.546875 4.46875 
Q 50.390625 -1.421875 35.6875 -1.421875 
Q 28.765625 -1.421875 21.78125 -0.09375 
Q 14.796875 1.21875 7.8125 3.8125 
L 7.8125 19.671875 
Q 14.796875 15.96875 21.3125 14.078125 
Q 27.828125 12.203125 33.890625 12.203125 
Q 40.046875 12.203125 43.3125 14.25 
Q 46.578125 16.3125 46.578125 20.125 
Q 46.578125 23.53125 44.359375 25.390625 
Q 42.140625 27.25 35.5 28.71875 
L 28.21875 30.328125 
Q 17.28125 32.671875 12.21875 37.796875 
Q 7.171875 42.921875 7.171875 51.609375 
Q 7.171875 62.5 14.203125 68.359375 
Q 21.234375 74.21875 34.421875 74.21875 
Q 40.4375 74.21875 46.78125 73.3125 
Q 53.125 72.40625 59.90625 70.609375 
z
" id="DejaVuSans-Bold-53"/>
      <path d="M 52.59375 52.984375 
L 52.59375 38.71875 
Q 49.03125 41.15625 45.4375 42.328125 
Q 41.84375 43.5 37.984375 43.5 
Q 30.671875 43.5 26.59375 39.234375 
Q 22.515625 34.96875 22.515625 27.296875 
Q 22.515625 19.625 26.59375 15.34375 
Q 30.671875 11.078125 37.984375 11.078125 
Q 42.09375 11.078125 45.78125 12.296875 
Q 49.46875 13.53125 52.59375 15.921875 
L 52.59375 1.609375 
Q 48.484375 0.09375 44.265625 -0.65625 
Q 40.046875 -1.421875 35.796875 -1.421875 
Q 21 -1.421875 12.640625 6.171875 
Q 4.296875 13.765625 4.296875 27.296875 
Q 4.296875 40.828125 12.640625 48.40625 
Q 21 56 35.796875 56 
Q 40.09375 56 44.265625 55.25 
Q 48.4375 54.5 52.59375 52.984375 
z
" id="DejaVuSans-Bold-63"/>
      <path d="M 34.421875 43.5 
Q 28.609375 43.5 25.5625 39.328125 
Q 22.515625 35.15625 22.515625 27.296875 
Q 22.515625 19.4375 25.5625 15.25 
Q 28.609375 11.078125 34.421875 11.078125 
Q 40.140625 11.078125 43.15625 15.25 
Q 46.1875 19.4375 46.1875 27.296875 
Q 46.1875 35.15625 43.15625 39.328125 
Q 40.140625 43.5 34.421875 43.5 
z
M 34.421875 56 
Q 48.53125 56 56.46875 48.375 
Q 64.40625 40.765625 64.40625 27.296875 
Q 64.40625 13.8125 56.46875 6.1875 
Q 48.53125 -1.421875 34.421875 -1.421875 
Q 20.265625 -1.421875 12.28125 6.1875 
Q 4.296875 13.8125 4.296875 27.296875 
Q 4.296875 40.765625 12.28125 48.375 
Q 20.265625 56 34.421875 56 
z
" id="DejaVuSans-Bold-6f"/>
      <path d="M 49.03125 39.796875 
Q 46.734375 40.875 44.453125 41.375 
Q 42.1875 41.890625 39.890625 41.890625 
Q 33.15625 41.890625 29.515625 37.5625 
Q 25.875 33.25 25.875 25.203125 
L 25.875 0 
L 8.40625 0 
L 8.40625 54.6875 
L 25.875 54.6875 
L 25.875 45.703125 
Q 29.25 51.078125 33.609375 53.53125 
Q 37.984375 56 44.09375 56 
Q 44.96875 56 45.984375 55.921875 
Q 47.015625 55.859375 48.96875 55.609375 
z
" id="DejaVuSans-Bold-72"/>
      <path d="M 62.984375 27.484375 
L 62.984375 22.515625 
L 22.125 22.515625 
Q 22.75 16.359375 26.5625 13.28125 
Q 30.375 10.203125 37.203125 10.203125 
Q 42.71875 10.203125 48.5 11.84375 
Q 54.296875 13.484375 60.40625 16.796875 
L 60.40625 3.328125 
Q 54.203125 0.984375 48 -0.21875 
Q 41.796875 -1.421875 35.59375 -1.421875 
Q 20.75 -1.421875 12.515625 6.125 
Q 4.296875 13.671875 4.296875 27.296875 
Q 4.296875 40.671875 12.375 48.328125 
Q 20.453125 56 34.625 56 
Q 47.515625 56 55.25 48.234375 
Q 62.984375 40.484375 62.984375 27.484375 
z
M 45.015625 33.296875 
Q 45.015625 38.28125 42.109375 41.328125 
Q 39.203125 44.390625 34.515625 44.390625 
Q 29.4375 44.390625 26.265625 41.53125 
Q 23.09375 38.671875 22.3125 33.296875 
z
" id="DejaVuSans-Bold-65"/>
      <path d="M 63.375 33.296875 
L 63.375 0 
L 45.796875 0 
L 45.796875 5.421875 
L 45.796875 25.390625 
Q 45.796875 32.5625 45.484375 35.25 
Q 45.171875 37.9375 44.390625 39.203125 
Q 43.359375 40.921875 41.59375 41.875 
Q 39.84375 42.828125 37.59375 42.828125 
Q 32.125 42.828125 29 38.59375 
Q 25.875 34.375 25.875 26.90625 
L 25.875 0 
L 8.40625 0 
L 8.40625 75.984375 
L 25.875 75.984375 
L 25.875 46.6875 
Q 29.828125 51.46875 34.265625 53.734375 
Q 38.71875 56 44.09375 56 
Q 53.5625 56 58.46875 50.1875 
Q 63.375 44.390625 63.375 33.296875 
z
" id="DejaVuSans-Bold-68"/>
      <path d="M 32.90625 24.609375 
Q 27.4375 24.609375 24.671875 22.75 
Q 21.921875 20.90625 21.921875 17.28125 
Q 21.921875 13.96875 24.140625 12.078125 
Q 26.375 10.203125 30.328125 10.203125 
Q 35.25 10.203125 38.625 13.734375 
Q 42 17.28125 42 22.609375 
L 42 24.609375 
z
M 59.625 31.203125 
L 59.625 0 
L 42 0 
L 42 8.109375 
Q 38.484375 3.125 34.078125 0.84375 
Q 29.6875 -1.421875 23.390625 -1.421875 
Q 14.890625 -1.421875 9.59375 3.53125 
Q 4.296875 8.5 4.296875 16.40625 
Q 4.296875 26.03125 10.90625 30.515625 
Q 17.53125 35.015625 31.6875 35.015625 
L 42 35.015625 
L 42 36.375 
Q 42 40.53125 38.71875 42.453125 
Q 35.453125 44.390625 28.515625 44.390625 
Q 22.90625 44.390625 18.0625 43.265625 
Q 13.234375 42.140625 9.078125 39.890625 
L 9.078125 53.21875 
Q 14.703125 54.59375 20.359375 55.296875 
Q 26.03125 56 31.6875 56 
Q 46.484375 56 53.046875 50.171875 
Q 59.625 44.34375 59.625 31.203125 
z
" id="DejaVuSans-Bold-61"/>
      <path d="M 63.375 33.296875 
L 63.375 0 
L 45.796875 0 
L 45.796875 5.421875 
L 45.796875 25.484375 
Q 45.796875 32.5625 45.484375 35.25 
Q 45.171875 37.9375 44.390625 39.203125 
Q 43.359375 40.921875 41.59375 41.875 
Q 39.84375 42.828125 37.59375 42.828125 
Q 32.125 42.828125 29 38.59375 
Q 25.875 34.375 25.875 26.90625 
L 25.875 0 
L 8.40625 0 
L 8.40625 54.6875 
L 25.875 54.6875 
L 25.875 46.6875 
Q 29.828125 51.46875 34.265625 53.734375 
Q 38.71875 56 44.09375 56 
Q 53.5625 56 58.46875 50.1875 
Q 63.375 44.390625 63.375 33.296875 
z
" id="DejaVuSans-Bold-6e"/>
      <path d="M 45.609375 9.28125 
Q 42 4.5 37.640625 2.25 
Q 33.296875 0 27.59375 0 
Q 17.578125 0 11.03125 7.875 
Q 4.5 15.765625 4.5 27.984375 
Q 4.5 40.234375 11.03125 48.0625 
Q 17.578125 55.90625 27.59375 55.90625 
Q 33.296875 55.90625 37.640625 53.65625 
Q 42 51.421875 45.609375 46.578125 
L 45.609375 54.6875 
L 63.1875 54.6875 
L 63.1875 5.515625 
Q 63.1875 -7.671875 54.859375 -14.625 
Q 46.53125 -21.578125 30.71875 -21.578125 
Q 25.59375 -21.578125 20.796875 -20.796875 
Q 16.015625 -20.015625 11.1875 -18.40625 
L 11.1875 -4.78125 
Q 15.765625 -7.421875 20.15625 -8.71875 
Q 24.5625 -10.015625 29 -10.015625 
Q 37.59375 -10.015625 41.59375 -6.25 
Q 45.609375 -2.484375 45.609375 5.515625 
z
M 34.078125 43.3125 
Q 28.65625 43.3125 25.625 39.296875 
Q 22.609375 35.296875 22.609375 27.984375 
Q 22.609375 20.453125 25.53125 16.578125 
Q 28.46875 12.703125 34.078125 12.703125 
Q 39.546875 12.703125 42.578125 16.703125 
Q 45.609375 20.703125 45.609375 27.984375 
Q 45.609375 35.296875 42.578125 39.296875 
Q 39.546875 43.3125 34.078125 43.3125 
z
" id="DejaVuSans-Bold-67"/>
     </defs>
     <g style="fill:#ffffff;" transform="translate(47.585937 251.66875)rotate(-90)scale(0.2 -0.2)">
      <use xlink:href="#DejaVuSans-Bold-53"/>
      <use x="72.021484" xlink:href="#DejaVuSans-Bold-63"/>
      <use x="131.298828" xlink:href="#DejaVuSans-Bold-6f"/>
      <use x="200" xlink:href="#DejaVuSans-Bold-72"/>
      <use x="249.316406" xlink:href="#DejaVuSans-Bold-65"/>
      <use x="317.138672" xlink:href="#DejaVuSans-Bold-63"/>
      <use x="376.416016" xlink:href="#DejaVuSans-Bold-68"/>
      <use x="447.607422" xlink:href="#DejaVuSans-Bold-61"/>
      <use x="515.087891" xlink:href="#DejaVuSans-Bold-6e"/>
      <use x="586.279297" xlink:href="#DejaVuSans-Bold-67"/>
      <use x="657.861328" xlink:href="#DejaVuSans-Bold-65"/>
     </g>
    </g>
   </g>
   <g id="line2d_9">
    <path clip-path="url(#p87c35b5052)" d="M 257.4 203.554712 
L 257.4 203.554712 
" style="fill:none;stroke:#000000;stroke-linecap:square;stroke-width:3;"/>
   </g>
   <g id="line2d_10">
    <path clip-path="url(#p87c35b5052)" d="M 257.4 203.554712 
L 257.4 203.554712 
" style="fill:none;stroke:#000000;stroke-linecap:square;stroke-width:9;"/>
   </g>
   <g id="line2d_11">
    <path clip-path="url(#p87c35b5052)" d="M 480.6 203.554712 
L 480.6 203.554712 
" style="fill:none;stroke:#000000;stroke-linecap:square;stroke-width:3;"/>
   </g>
   <g id="line2d_12">
    <path clip-path="url(#p87c35b5052)" d="M 480.6 203.554712 
L 480.6 203.554712 
" style="fill:none;stroke:#000000;stroke-linecap:square;stroke-width:9;"/>
   </g>
   <g id="patch_5">
    <path d="M 90 315 
L 90 43.2 
" style="fill:none;stroke:#ffffff;stroke-linecap:square;stroke-linejoin:miter;stroke-width:3;"/>
   </g>
   <g id="PathCollection_1">
    <defs>
     <path d="M 0 3 
C 0.795609 3 1.55874 2.683901 2.12132 2.12132 
C 2.683901 1.55874 3 0.795609 3 0 
C 3 -0.795609 2.683901 -1.55874 2.12132 -2.12132 
C 1.55874 -2.683901 0.795609 -3 0 -3 
C -0.795609 -3 -1.55874 -2.683901 -2.12132 -2.12132 
C -2.683901 -1.55874 -3 -0.795609 -3 0 
C -3 0.795609 -2.683901 1.55874 -2.12132 2.12132 
C -1.55874 2.683901 -0.795609 3 0 3 
z
" id="md7661bb7df" style="stroke:#ffffff;"/>
    </defs>
    <g clip-path="url(#p87c35b5052)">
     <use style="fill:#ffffff;stroke:#ffffff;" x="257.4" xlink:href="#md7661bb7df" y="203.554712"/>
    </g>
   </g>
   <g id="PathCollection_2">
    <g clip-path="url(#p87c35b5052)">
     <use style="fill:#ffffff;stroke:#ffffff;" x="480.6" xlink:href="#md7661bb7df" y="203.554712"/>
    </g>
   </g>
  </g>
 </g>
 <defs>
  <clipPath id="p87c35b5052">
   <rect height="271.8" width="558" x="90" y="43.2"/>
  </clipPath>
 </defs>
</svg>
