<?xml version="1.0" encoding="UTF-8" standalone="no"?>
<svg
   xmlns:dc="http://purl.org/dc/elements/1.1/"
   xmlns:cc="http://creativecommons.org/ns#"
   xmlns:rdf="http://www.w3.org/1999/02/22-rdf-syntax-ns#"
   xmlns:svg="http://www.w3.org/2000/svg"
   xmlns="http://www.w3.org/2000/svg"
   xmlns:xlink="http://www.w3.org/1999/xlink"
   xmlns:sodipodi="http://sodipodi.sourceforge.net/DTD/sodipodi-0.dtd"
   xmlns:inkscape="http://www.inkscape.org/namespaces/inkscape"
   height="360pt"
   version="1.1"
   viewBox="0 0 720 360"
   width="720pt"
   id="svg648"
   sodipodi:docname="temp2.svg"
   inkscape:version="1.0.1 (c497b03c, 2020-09-10)">
  <metadata
     id="metadata652">
    <rdf:RDF>
      <cc:Work
         rdf:about="">
        <dc:format>image/svg+xml</dc:format>
        <dc:type
           rdf:resource="http://purl.org/dc/dcmitype/StillImage" />
        <dc:title></dc:title>
      </cc:Work>
    </rdf:RDF>
  </metadata>
  <sodipodi:namedview
     pagecolor="#ffffff"
     bordercolor="#666666"
     borderopacity="1"
     objecttolerance="10"
     gridtolerance="10"
     guidetolerance="10"
     inkscape:pageopacity="0"
     inkscape:pageshadow="2"
     inkscape:window-width="1135"
     inkscape:window-height="725"
     id="namedview650"
     showgrid="false"
     inkscape:zoom="1.1427083"
     inkscape:cx="480.20565"
     inkscape:cy="226.87329"
     inkscape:window-x="0"
     inkscape:window-y="23"
     inkscape:window-maximized="0"
     inkscape:current-layer="svg648" />
  <defs
     id="defs352">
    <style
       type="text/css"
       id="style350">
*{stroke-linecap:butt;stroke-linejoin:round;}
  </style>
  </defs>
  <g
     id="figure_1"
     transform="translate(-15.095715,-9.1886968)"
     style="fill:none">
    <g
       id="patch_1"
       style="fill:none">
      <path
         d="M 0,360 H 720 V 0 H 0 Z"
         style="fill:none"
         id="path354" />
    </g>
    <g
       id="axes_1"
       style="fill:none">
      <g
         id="patch_2"
         style="fill:none">
        <path
           d="M 90,315 H 648 V 43.2 H 90 Z"
           style="fill:none"
           id="path357" />
      </g>
      <g
         id="PolyCollection_1"
         style="fill:none">
        <defs
           id="defs361">
          <path
             d="m 369,-57.354545 h -1.16308 l -0.43795,-2.001834 -0.54284,-2.001833 -0.64893,-2.001833 -0.74696,-2.001833 -0.82613,-2.001833 -0.87558,-2.001834 -0.88606,-2.001833 -0.85208,-2.001833 -0.77356,-2.001833 -0.65711,-2.001833 -0.51606,-2.001833 -0.36953,-2.001834 -0.24002,-2.001833 -0.15026,-2.001833 -0.11942,-2.001833 -0.15967,-2.001833 -0.27337,-2.001834 -0.45184,-2.001833 -0.6757,-2.001833 -0.91717,-2.001833 -1.1438,-2.001833 -1.32329,-2.001838 -1.42841,-2.00183 -1.4415,-2.00183 -1.35772,-2.00183 -1.1864,-2.00184 -0.95104,-2.00183 -0.68751,-2.00183 -0.44181,-2.00184 -0.26755,-2.00183 -0.22379,-2.00183 -0.37346,-2.00184 -0.78137,-2.00183 -1.51111,-2.00183 -2.61946,-2.00184 -4.14734,-2.00183 -6.10704,-2.00183 -8.46741,-2.00184 -11.13912,-2.00183 -13.96453,-2.00183 -16.71647,-2.00184 -19.10962,-2.00183 -20.82675,-2.00183 -21.55809,-2.00184 -21.04914,-2.00183 -19.14866,-2.00183 -15.84707,-2.00183 -11.29579,-2.00184 -5.80143,-2.00183 0.20671,-2.00183 6.23113,-2.00184 11.7731,-2.00183 16.39971,-2.00183 19.79838,-2.00184 21.8095,-2.00183 22.4326,-2.00183 21.8078,-2.00184 20.17833,-2.00183 17.84383,-2.00183 15.11359,-2.00184 12.26826,-2.00183 9.53393,-2.00183 7.07066,-2.00184 4.97293,-2.00183 3.2788,-2.00183 1.98335,-2.00184 1.05278,-2.00183 0.43669,-2.00183 0.0772,-2.00183 -0.0851,-2.00184 -0.10694,-2.00183 -0.0409,-2.00183 0.0668,-2.00184 0.17754,-2.00183 0.2618,-2.00183 0.30042,-2.00184 0.28529,-2.00183 0.21911,-2.00183 0.11394,-2.00184 -0.0112,-2.00183 -0.13368,-2.00183 -0.23098,-2.00184 -0.2843,-2.00183 -0.28143,-2.00183 -0.21858,-2.00184 -0.10074,-2.00183 0.0593,-2.00183 0.24343,-2.00184 0.43071,-2.00183 0.60105,-2.00183 0.73786,-2.00183 0.83,-2.00184 0.87282,-2.00183 0.86786,-2.00183 0.82177,-2.00184 0.74456,-2.00183 0.64766,-2.00183 0.54218,-2.00184 0.43762,-2.00183 H 369 v 0 2.00183 2.00184 2.00183 2.00183 2.00184 2.00183 2.00183 2.00184 2.00183 2.00183 2.00183 2.00184 2.00183 2.00183 2.00184 2.00183 2.00183 2.00184 2.00183 2.00183 2.00184 2.00183 2.00183 2.00184 2.00183 2.00183 2.00184 2.00183 2.00183 2.00184 2.00183 2.00183 2.00183 2.00184 2.00183 2.00183 2.00184 2.00183 2.00183 2.00184 2.00183 2.00183 2.00184 2.00183 2.00183 2.00184 2.00183 2.00183 2.00184 2.00183 2.00183 2.00184 2.00183 2.00183 2.00183 2.00184 2.00183 2.00183 2.00184 2.00183 2.00183 2.00184 2.00183 2.00183 2.00184 2.00183 2.00183 2.00184 2.00183 2.00183 2.00184 2.00183 2.00183 2.00184 2.00183 2.00183 2.00183 2.001838 2.001833 2.001833 2.001833 2.001833 2.001834 2.001833 2.001833 2.001833 2.001833 2.001834 2.001833 2.001833 2.001833 2.001833 2.001833 2.001834 2.001833 2.001833 2.001833 2.001833 z"
             id="m16be1c3a36"
             style="stroke:#ffffff;stroke-width:3" />
        </defs>
        <g
           clip-path="url(#p3a0e515215)"
           id="g365"
           style="fill:none">
          <use
             style="fill:none;stroke:#ffffff;stroke-width:3"
             x="0"
             xlink:href="#m16be1c3a36"
             y="360"
             id="use363"
             width="100%"
             height="100%" />
        </g>
      </g>
      <g
         id="PolyCollection_2"
         style="fill:none">
        <defs
           id="defs369">
          <path
             d="M 369.95847,-69.206081 H 369 v -2.376155 -2.376156 -2.376155 -2.376155 -2.376155 -2.376156 -2.376155 -2.376155 -2.376156 -2.376155 -2.376155 -2.376155 -2.376156 -2.37616 -2.37615 -2.37616 -2.37615 -2.37616 -2.37615 -2.37616 -2.37615 -2.37616 -2.37615 -2.37616 -2.37615 -2.37616 -2.37615 -2.37616 -2.37615 -2.37616 -2.37615 -2.37616 -2.37616 -2.37615 -2.37616 -2.37615 -2.37616 -2.37615 -2.37616 -2.37615 -2.37616 -2.37615 -2.37616 -2.37615 -2.37616 -2.37615 -2.37616 -2.37615 -2.37616 -2.37615 -2.37616 -2.37616 -2.37615 -2.37616 -2.37615 -2.37616 -2.37615 -2.37616 -2.37615 -2.37616 -2.37615 -2.37616 -2.37615 -2.37616 -2.37615 -2.37616 -2.37616 -2.37615 -2.37616 -2.37615 -2.37616 -2.37615 -2.37616 -2.37615 -2.37616 -2.37615 -2.37616 -2.37615 -2.37616 -2.37615 -2.37616 -2.37615 -2.37616 -2.37616 -2.37615 -2.37616 -2.37615 -2.37616 -2.37615 -2.37616 -2.37615 -2.37616 -2.37615 -2.37616 -2.37615 -2.37616 -2.37615 -2.37616 -2.37615 h 0.95846 v 0 l 0.36428,2.37615 0.45184,2.37616 0.53983,2.37615 0.61993,2.37616 0.68228,2.37615 0.71668,2.37616 0.714,2.37615 0.66781,2.37616 0.57584,2.37615 0.44098,2.37616 0.27135,2.37615 0.0797,2.37616 -0.11799,2.37615 -0.3049,2.37616 -0.46525,2.37615 -0.58634,2.37616 -0.65983,2.37616 -0.68217,2.37615 -0.65403,2.37616 -0.57935,2.37615 -0.4638,2.37616 -0.31343,2.37615 -0.1338,2.37616 0.0704,2.37615 0.2948,2.37616 0.53465,2.37615 0.7834,2.37616 1.03172,2.37615 1.26695,2.37616 1.47335,2.37615 1.63331,2.37616 1.72939,2.37615 1.74694,2.37616 1.67667,2.37616 1.51694,2.37615 1.27497,2.37616 0.96697,2.37615 0.61718,2.37616 0.2561,2.37615 -0.0815,2.37616 -0.3588,2.37615 -0.53758,2.37616 -0.57931,2.37615 -0.44485,2.37616 -0.0944,2.37615 0.51154,2.37616 1.41018,2.37615 2.63123,2.37616 4.1895,2.37616 6.07474,2.37615 8.24042,2.37616 10.5934,2.37615 12.98781,2.37616 15.22629,2.37615 17.07142,2.37616 18.26843,2.37615 18.57804,2.37616 17.81465,2.37615 15.88396,2.37616 12.81102,2.37615 8.75236,2.37616 3.98675,2.37615 -1.11524,2.37616 -6.13855,2.37615 -10.67945,2.37616 -14.39917,2.37615 -17.06534,2.37616 -18.57416,2.37616 -18.95074,2.37615 -18.32959,2.37616 -16.92133,2.37615 -14.97365,2.37616 -12.73408,2.37615 -10.42073,2.37616 -8.20431,2.37615 -6.20147,2.37616 -4.47774,2.37615 -3.05671,2.37616 -1.93207,2.37615 -1.0793,2.37616 -0.46526,2.37615 -0.0547,2.37616 0.1862,2.37615 0.28894,2.37616 0.28272,2.37615 0.19538,2.37616 0.0537,2.376156 -0.11662,2.376155 -0.29204,2.376155 -0.45233,2.376155 -0.58194,2.376156 -0.67099,2.376155 -0.71563,2.376155 -0.7175,2.376156 -0.68268,2.376155 -0.62011,2.376155 -0.53992,2.376155 -0.45189,2.376156 z"
             id="m4813f510b5"
             style="stroke:#ffffff;stroke-width:3" />
        </defs>
        <g
           clip-path="url(#p3a0e515215)"
           id="g373"
           style="fill:none">
          <use
             style="fill:none;stroke:#ffffff;stroke-width:3"
             x="0"
             xlink:href="#m4813f510b5"
             y="360"
             id="use371"
             width="100%"
             height="100%" />
        </g>
      </g>
      <g
         id="patch_3"
         style="fill:none">
        <path
           clip-path="url(#p3a0e515215)"
           d="M 369,203.55471 Z"
           style="fill:none;stroke:#404040;stroke-width:1.5;stroke-linejoin:miter"
           id="path376" />
      </g>
      <g
         id="patch_4"
         style="fill:none">
        <path
           clip-path="url(#p3a0e515215)"
           d="M 369,203.55471 Z"
           style="fill:none;stroke:#404040;stroke-width:1.5;stroke-linejoin:miter"
           id="path379" />
      </g>
      <g
         id="matplotlib.axis_1"
         style="fill:none">
        <g
           id="ytick_1"
           style="fill:none">
          <g
             id="line2d_1"
             style="fill:none">
            <defs
               id="defs383">
              <path
                 d="M 0,0 H -3.5"
                 id="maa2f5fa608"
                 style="stroke:#ffffff;stroke-width:3" />
            </defs>
            <g
               id="g387"
               style="fill:none">
              <use
                 style="fill:none;stroke:#ffffff;stroke-width:3"
                 x="90"
                 xlink:href="#maa2f5fa608"
                 y="310.77994"
                 id="use385"
                 width="100%"
                 height="100%" />
            </g>
          </g>
          <g
             id="text_1"
             style="fill:none">
            <!-- -60 -->
            <defs
               id="defs393">
              <path
                 d="m 5.421875,35.890625 h 30.65625 V 21.6875 H 5.421875 Z"
                 id="DejaVuSans-Bold-2d" />
              <path
                 d="m 36.1875,35.984375 q -4.9375,0 -7.40625,-3.203125 -2.46875,-3.1875 -2.46875,-9.59375 0,-6.390625 2.46875,-9.59375 2.46875,-3.1875 7.40625,-3.1875 4.96875,0 7.4375,3.1875 2.46875,3.203125 2.46875,9.59375 0,6.40625 -2.46875,9.59375 -2.46875,3.203125 -7.4375,3.203125 z M 59.421875,71 V 57.515625 q -4.640625,2.203125 -8.75,3.25 -4.09375,1.046875 -8,1.046875 -8.390625,0 -13.078125,-4.671875 -4.6875,-4.65625 -5.46875,-13.828125 3.21875,2.390625 6.96875,3.578125 3.765625,1.203125 8.21875,1.203125 11.171875,0 18.03125,-6.546875 6.859375,-6.53125 6.859375,-17.125 0,-11.71875 -7.671875,-18.78125 -7.65625,-7.0625 -20.546875,-7.0625 -14.203125,0 -22,9.59375 -7.78125,9.609375 -7.78125,27.234375 0,18.0625 9.109375,28.390625 Q 24.421875,74.125 40.28125,74.125 q 5.03125,0 9.765625,-0.78125 Q 54.78125,72.5625 59.421875,71 Z"
                 id="DejaVuSans-Bold-36" />
              <path
                 d="m 46,36.53125 q 0,13.671875 -2.5625,19.25 -2.5625,5.59375 -8.625,5.59375 -6.046875,0 -8.640625,-5.59375 -2.59375,-5.578125 -2.59375,-19.25 0,-13.828125 2.59375,-19.5 2.59375,-5.65625 8.640625,-5.65625 6.015625,0 8.59375,5.65625 Q 46,22.703125 46,36.53125 Z M 64.796875,36.375 q 0,-18.109375 -7.8125,-27.953125 -7.8125,-9.84375 -22.171875,-9.84375 -14.40625,0 -22.21875,9.84375 -7.8125,9.84375 -7.8125,27.953125 0,18.171875 7.8125,28 7.8125,9.84375 22.21875,9.84375 14.359375,0 22.171875,-9.84375 7.8125,-9.828125 7.8125,-28 z"
                 id="DejaVuSans-Bold-30" />
            </defs>
            <g
               style="fill:none"
               transform="matrix(0.15,0,0,-0.15,55.901562,316.47876)"
               id="g401">
              <use
                 xlink:href="#DejaVuSans-Bold-2d"
                 id="use395"
                 x="0"
                 y="0"
                 width="100%"
                 height="100%"
                 style="fill:none" />
              <use
                 x="41.503906"
                 xlink:href="#DejaVuSans-Bold-36"
                 id="use397"
                 y="0"
                 width="100%"
                 height="100%"
                 style="fill:none" />
              <use
                 x="111.08398"
                 xlink:href="#DejaVuSans-Bold-30"
                 id="use399"
                 y="0"
                 width="100%"
                 height="100%"
                 style="fill:none" />
            </g>
          </g>
        </g>
        <g
           id="ytick_2"
           style="fill:none">
          <g
             id="line2d_2"
             style="fill:none">
            <g
               id="g407"
               style="fill:none">
              <use
                 style="fill:none;stroke:#ffffff;stroke-width:3"
                 x="90"
                 xlink:href="#maa2f5fa608"
                 y="275.03821"
                 id="use405"
                 width="100%"
                 height="100%" />
            </g>
          </g>
          <g
             id="text_2"
             style="fill:none">
            <!-- -40 -->
            <defs
               id="defs411">
              <path
                 d="M 36.8125,57.421875 16.21875,26.90625 H 36.8125 Z m -3.125,15.484375 h 20.90625 v -46 h 10.390625 v -13.625 H 54.59375 V 0 H 36.8125 V 13.28125 H 4.5 v 16.109375 z"
                 id="DejaVuSans-Bold-34" />
            </defs>
            <g
               style="fill:none"
               transform="matrix(0.15,0,0,-0.15,55.901562,280.73702)"
               id="g419">
              <use
                 xlink:href="#DejaVuSans-Bold-2d"
                 id="use413"
                 x="0"
                 y="0"
                 width="100%"
                 height="100%"
                 style="fill:none" />
              <use
                 x="41.503906"
                 xlink:href="#DejaVuSans-Bold-34"
                 id="use415"
                 y="0"
                 width="100%"
                 height="100%"
                 style="fill:none" />
              <use
                 x="111.08398"
                 xlink:href="#DejaVuSans-Bold-30"
                 id="use417"
                 y="0"
                 width="100%"
                 height="100%"
                 style="fill:none" />
            </g>
          </g>
        </g>
        <g
           id="ytick_3"
           style="fill:none">
          <g
             id="line2d_3"
             style="fill:none">
            <g
               id="g425"
               style="fill:none">
              <use
                 style="fill:none;stroke:#ffffff;stroke-width:3"
                 x="90"
                 xlink:href="#maa2f5fa608"
                 y="239.29645"
                 id="use423"
                 width="100%"
                 height="100%" />
            </g>
          </g>
          <g
             id="text_3"
             style="fill:none">
            <!-- -20 -->
            <defs
               id="defs429">
              <path
                 d="M 28.8125,13.8125 H 60.890625 V 0 H 7.90625 v 13.8125 l 26.609375,23.5 q 3.578125,3.21875 5.28125,6.296875 Q 41.5,46.6875 41.5,50 q 0,5.125 -3.4375,8.25 -3.4375,3.125 -9.15625,3.125 -4.390625,0 -9.625,-1.875 Q 14.0625,57.625 8.109375,53.90625 v 16.015625 q 6.34375,2.09375 12.546875,3.1875 6.203125,1.109375 12.15625,1.109375 13.09375,0 20.34375,-5.765625 7.25,-5.75 7.25,-16.0625 0,-5.953125 -3.078125,-11.109375 Q 54.25,36.140625 44.390625,27.484375 Z"
                 id="DejaVuSans-Bold-32" />
            </defs>
            <g
               style="fill:none"
               transform="matrix(0.15,0,0,-0.15,55.901562,244.99528)"
               id="g437">
              <use
                 xlink:href="#DejaVuSans-Bold-2d"
                 id="use431"
                 x="0"
                 y="0"
                 width="100%"
                 height="100%"
                 style="fill:none" />
              <use
                 x="41.503906"
                 xlink:href="#DejaVuSans-Bold-32"
                 id="use433"
                 y="0"
                 width="100%"
                 height="100%"
                 style="fill:none" />
              <use
                 x="111.08398"
                 xlink:href="#DejaVuSans-Bold-30"
                 id="use435"
                 y="0"
                 width="100%"
                 height="100%"
                 style="fill:none" />
            </g>
          </g>
        </g>
        <g
           id="ytick_4"
           style="fill:none">
          <g
             id="line2d_4"
             style="fill:none">
            <g
               id="g443"
               style="fill:none">
              <use
                 style="fill:none;stroke:#ffffff;stroke-width:3"
                 x="90"
                 xlink:href="#maa2f5fa608"
                 y="203.55472"
                 id="use441"
                 width="100%"
                 height="100%" />
            </g>
          </g>
          <g
             id="text_4"
             style="fill:none">
            <!-- 0 -->
            <g
               style="fill:none"
               transform="matrix(0.15,0,0,-0.15,72.563281,209.25354)"
               id="g448">
              <use
                 xlink:href="#DejaVuSans-Bold-30"
                 id="use446"
                 x="0"
                 y="0"
                 width="100%"
                 height="100%"
                 style="fill:none" />
            </g>
          </g>
        </g>
        <g
           id="ytick_5"
           style="fill:none">
          <g
             id="line2d_5"
             style="fill:none">
            <g
               id="g454"
               style="fill:none">
              <use
                 style="fill:none;stroke:#ffffff;stroke-width:3"
                 x="90"
                 xlink:href="#maa2f5fa608"
                 y="167.81297"
                 id="use452"
                 width="100%"
                 height="100%" />
            </g>
          </g>
          <g
             id="text_5"
             style="fill:none">
            <!-- 20 -->
            <g
               style="fill:none"
               transform="matrix(0.15,0,0,-0.15,62.126563,173.5118)"
               id="g461">
              <use
                 xlink:href="#DejaVuSans-Bold-32"
                 id="use457"
                 x="0"
                 y="0"
                 width="100%"
                 height="100%"
                 style="fill:none" />
              <use
                 x="69.580078"
                 xlink:href="#DejaVuSans-Bold-30"
                 id="use459"
                 y="0"
                 width="100%"
                 height="100%"
                 style="fill:none" />
            </g>
          </g>
        </g>
        <g
           id="ytick_6"
           style="fill:none">
          <g
             id="line2d_6"
             style="fill:none">
            <g
               id="g467"
               style="fill:none">
              <use
                 style="fill:none;stroke:#ffffff;stroke-width:3"
                 x="90"
                 xlink:href="#maa2f5fa608"
                 y="132.07123"
                 id="use465"
                 width="100%"
                 height="100%" />
            </g>
          </g>
          <g
             id="text_6"
             style="fill:none">
            <!-- 40 -->
            <g
               style="fill:none"
               transform="matrix(0.15,0,0,-0.15,62.126563,137.77006)"
               id="g474">
              <use
                 xlink:href="#DejaVuSans-Bold-34"
                 id="use470"
                 x="0"
                 y="0"
                 width="100%"
                 height="100%"
                 style="fill:none" />
              <use
                 x="69.580078"
                 xlink:href="#DejaVuSans-Bold-30"
                 id="use472"
                 y="0"
                 width="100%"
                 height="100%"
                 style="fill:none" />
            </g>
          </g>
        </g>
        <g
           id="ytick_7"
           style="fill:none">
          <g
             id="line2d_7"
             style="fill:none">
            <g
               id="g480"
               style="fill:none">
              <use
                 style="fill:none;stroke:#ffffff;stroke-width:3"
                 x="90"
                 xlink:href="#maa2f5fa608"
                 y="96.329491"
                 id="use478"
                 width="100%"
                 height="100%" />
            </g>
          </g>
          <g
             id="text_7"
             style="fill:none">
            <!-- 60 -->
            <g
               style="fill:none"
               transform="matrix(0.15,0,0,-0.15,62.126563,102.02832)"
               id="g487">
              <use
                 xlink:href="#DejaVuSans-Bold-36"
                 id="use483"
                 x="0"
                 y="0"
                 width="100%"
                 height="100%"
                 style="fill:none" />
              <use
                 x="69.580078"
                 xlink:href="#DejaVuSans-Bold-30"
                 id="use485"
                 y="0"
                 width="100%"
                 height="100%"
                 style="fill:none" />
            </g>
          </g>
        </g>
        <g
           id="ytick_8"
           style="fill:none">
          <g
             id="line2d_8"
             style="fill:none">
            <g
               id="g493"
               style="fill:none">
              <use
                 style="fill:none;stroke:#ffffff;stroke-width:3"
                 x="90"
                 xlink:href="#maa2f5fa608"
                 y="60.587749"
                 id="use491"
                 width="100%"
                 height="100%" />
            </g>
          </g>
          <g
             id="text_8"
             style="fill:none">
            <!-- 80 -->
            <defs
               id="defs497">
              <path
                 d="m 34.8125,32.625 q -5.265625,0 -8.109375,-2.890625 -2.828125,-2.875 -2.828125,-8.25 0,-5.375 2.828125,-8.234375 2.84375,-2.84375 8.109375,-2.84375 5.234375,0 8.015625,2.84375 2.78125,2.859375 2.78125,8.234375 0,5.421875 -2.78125,8.28125 Q 40.046875,32.625 34.8125,32.625 Z M 21.09375,38.8125 Q 14.453125,40.828125 11.078125,44.96875 7.71875,49.125 7.71875,55.328125 q 0,9.21875 6.875,14.046875 6.890625,4.84375 20.21875,4.84375 13.234375,0 20.109375,-4.8125 Q 61.8125,64.59375 61.8125,55.328125 61.8125,49.125 58.421875,44.96875 55.03125,40.828125 48.390625,38.8125 55.8125,36.765625 59.59375,32.15625 63.375,27.546875 63.375,20.515625 63.375,9.671875 56.171875,4.125 48.96875,-1.421875 34.8125,-1.421875 q -14.203125,0 -21.453125,5.546875 -7.25,5.546875 -7.25,16.390625 0,7.03125 3.78125,11.640625 3.78125,4.609375 11.203125,6.65625 z m 4.390625,14.609375 q 0,-4.34375 2.421875,-6.6875 2.421875,-2.34375 6.90625,-2.34375 4.390625,0 6.78125,2.34375 Q 44,49.078125 44,53.421875 q 0,4.34375 -2.40625,6.65625 -2.390625,2.328125 -6.78125,2.328125 -4.484375,0 -6.90625,-2.34375 -2.421875,-2.34375 -2.421875,-6.640625 z"
                 id="DejaVuSans-Bold-38" />
            </defs>
            <g
               style="fill:none"
               transform="matrix(0.15,0,0,-0.15,62.126563,66.286577)"
               id="g503">
              <use
                 xlink:href="#DejaVuSans-Bold-38"
                 id="use499"
                 x="0"
                 y="0"
                 width="100%"
                 height="100%"
                 style="fill:none" />
              <use
                 x="69.580078"
                 xlink:href="#DejaVuSans-Bold-30"
                 id="use501"
                 y="0"
                 width="100%"
                 height="100%"
                 style="fill:none" />
            </g>
          </g>
        </g>
        <g
           id="text_9"
           style="fill:none">
          <!-- Scorechange -->
          <defs
             id="defs516">
            <path
               d="m 59.90625,70.609375 v -15.4375 q -6,2.6875 -11.71875,4.046875 -5.703125,1.375 -10.78125,1.375 -6.734375,0 -9.96875,-1.859375 -3.21875,-1.84375 -3.21875,-5.75 0,-2.9375 2.171875,-4.578125 2.171875,-1.625 7.890625,-2.796875 l 8,-1.609375 q 12.15625,-2.453125 17.28125,-7.4375 5.140625,-4.96875 5.140625,-14.15625 0,-12.046875 -7.15625,-17.9375 -7.15625,-5.890625 -21.859375,-5.890625 -6.921875,0 -13.90625,1.328125 Q 14.796875,1.21875 7.8125,3.8125 v 15.859375 q 6.984375,-3.703125 13.5,-5.59375 6.515625,-1.875 12.578125,-1.875 6.15625,0 9.421875,2.046875 3.265625,2.0625 3.265625,5.875 0,3.40625 -2.21875,5.265625 Q 42.140625,27.25 35.5,28.71875 l -7.28125,1.609375 q -10.9375,2.34375 -16,7.46875 -5.046875,5.125 -5.046875,13.8125 0,10.890625 7.03125,16.75 7.03125,5.859375 20.21875,5.859375 6.015625,0 12.359375,-0.90625 6.34375,-0.90625 13.125,-2.703125 z"
               id="DejaVuSans-Bold-53" />
            <path
               d="M 52.59375,52.984375 V 38.71875 q -3.5625,2.4375 -7.15625,3.609375 Q 41.84375,43.5 37.984375,43.5 q -7.3125,0 -11.390625,-4.265625 -4.078125,-4.265625 -4.078125,-11.9375 0,-7.671875 4.078125,-11.953125 4.078125,-4.265625 11.390625,-4.265625 4.109375,0 7.796875,1.21875 3.6875,1.234375 6.8125,3.625 V 1.609375 Q 48.484375,0.09375 44.265625,-0.65625 q -4.21875,-0.765625 -8.46875,-0.765625 -14.796875,0 -23.15625,7.59375 -8.34375,7.59375 -8.34375,21.125 0,13.53125 8.34375,21.109375 Q 21,56 35.796875,56 40.09375,56 44.265625,55.25 48.4375,54.5 52.59375,52.984375 Z"
               id="DejaVuSans-Bold-63" />
            <path
               d="m 34.421875,43.5 q -5.8125,0 -8.859375,-4.171875 -3.046875,-4.171875 -3.046875,-12.03125 0,-7.859375 3.046875,-12.046875 3.046875,-4.171875 8.859375,-4.171875 5.71875,0 8.734375,4.171875 3.03125,4.1875 3.03125,12.046875 0,7.859375 -3.03125,12.03125 Q 40.140625,43.5 34.421875,43.5 Z m 0,12.5 q 14.109375,0 22.046875,-7.625 7.9375,-7.609375 7.9375,-21.078125 0,-13.484375 -7.9375,-21.109375 -7.9375,-7.609375 -22.046875,-7.609375 -14.15625,0 -22.140625,7.609375 -7.984375,7.625 -7.984375,21.109375 0,13.46875 7.984375,21.078125 Q 20.265625,56 34.421875,56 Z"
               id="DejaVuSans-Bold-6f" />
            <path
               d="M 49.03125,39.796875 Q 46.734375,40.875 44.453125,41.375 q -2.265625,0.515625 -4.5625,0.515625 -6.734375,0 -10.375,-4.328125 Q 25.875,33.25 25.875,25.203125 V 0 H 8.40625 V 54.6875 H 25.875 v -8.984375 q 3.375,5.375 7.734375,7.828125 Q 37.984375,56 44.09375,56 q 0.875,0 1.890625,-0.07813 1.03125,-0.0625 2.984375,-0.3125 z"
               id="DejaVuSans-Bold-72" />
            <path
               d="m 62.984375,27.484375 v -4.96875 H 22.125 q 0.625,-6.15625 4.4375,-9.234375 3.8125,-3.078125 10.640625,-3.078125 5.515625,0 11.296875,1.640625 5.796875,1.640625 11.90625,4.953125 V 3.328125 Q 54.203125,0.984375 48,-0.21875 41.796875,-1.421875 35.59375,-1.421875 q -14.84375,0 -23.078125,7.546875 -8.21875,7.546875 -8.21875,21.171875 0,13.375 8.078125,21.03125 Q 20.453125,56 34.625,56 q 12.890625,0 20.625,-7.765625 7.734375,-7.75 7.734375,-20.75 z m -17.96875,5.8125 q 0,4.984375 -2.90625,8.03125 -2.90625,3.0625 -7.59375,3.0625 -5.078125,0 -8.25,-2.859375 Q 23.09375,38.671875 22.3125,33.296875 Z"
               id="DejaVuSans-Bold-65" />
            <path
               d="M 63.375,33.296875 V 0 H 45.796875 v 5.421875 19.96875 q 0,7.171875 -0.3125,9.859375 -0.3125,2.6875 -1.09375,3.953125 -1.03125,1.71875 -2.796875,2.671875 -1.75,0.953125 -4,0.953125 Q 32.125,42.828125 29,38.59375 25.875,34.375 25.875,26.90625 V 0 H 8.40625 V 75.984375 H 25.875 V 46.6875 q 3.953125,4.78125 8.390625,7.046875 Q 38.71875,56 44.09375,56 53.5625,56 58.46875,50.1875 63.375,44.390625 63.375,33.296875 Z"
               id="DejaVuSans-Bold-68" />
            <path
               d="m 32.90625,24.609375 q -5.46875,0 -8.234375,-1.859375 -2.75,-1.84375 -2.75,-5.46875 0,-3.3125 2.21875,-5.203125 2.234375,-1.875 6.1875,-1.875 4.921875,0 8.296875,3.53125 3.375,3.546875 3.375,8.875 v 2 z M 59.625,31.203125 V 0 H 42 V 8.109375 Q 38.484375,3.125 34.078125,0.84375 29.6875,-1.421875 23.390625,-1.421875 q -8.5,0 -13.796875,4.953125 -5.296875,4.96875 -5.296875,12.875 0,9.625 6.609375,14.109375 6.625,4.5 20.78125,4.5 H 42 V 36.375 q 0,4.15625 -3.28125,6.078125 -3.265625,1.9375 -10.203125,1.9375 -5.609375,0 -10.453125,-1.125 -4.828125,-1.125 -8.984375,-3.375 V 53.21875 q 5.625,1.375 11.28125,2.078125 Q 26.03125,56 31.6875,56 46.484375,56 53.046875,50.171875 59.625,44.34375 59.625,31.203125 Z"
               id="DejaVuSans-Bold-61" />
            <path
               d="M 63.375,33.296875 V 0 H 45.796875 v 5.421875 20.0625 q 0,7.078125 -0.3125,9.765625 -0.3125,2.6875 -1.09375,3.953125 -1.03125,1.71875 -2.796875,2.671875 -1.75,0.953125 -4,0.953125 Q 32.125,42.828125 29,38.59375 25.875,34.375 25.875,26.90625 V 0 H 8.40625 V 54.6875 H 25.875 v -8 q 3.953125,4.78125 8.390625,7.046875 Q 38.71875,56 44.09375,56 53.5625,56 58.46875,50.1875 63.375,44.390625 63.375,33.296875 Z"
               id="DejaVuSans-Bold-6e" />
            <path
               d="M 45.609375,9.28125 Q 42,4.5 37.640625,2.25 33.296875,0 27.59375,0 17.578125,0 11.03125,7.875 4.5,15.765625 4.5,27.984375 q 0,12.25 6.53125,20.078125 6.546875,7.84375 16.5625,7.84375 5.703125,0 10.046875,-2.25 Q 42,51.421875 45.609375,46.578125 V 54.6875 H 63.1875 V 5.515625 q 0,-13.1875 -8.328125,-20.140625 -8.328125,-6.953125 -24.140625,-6.953125 -5.125,0 -9.921875,0.78125 -4.78125,0.78125 -9.609375,2.390625 v 13.625 q 4.578125,-2.640625 8.96875,-3.9375 4.40625,-1.296875 8.84375,-1.296875 8.59375,0 12.59375,3.765625 4.015625,3.765625 4.015625,11.765625 z M 34.078125,43.3125 q -5.421875,0 -8.453125,-4.015625 -3.015625,-4 -3.015625,-11.3125 0,-7.53125 2.921875,-11.40625 2.9375,-3.875 8.546875,-3.875 5.46875,0 8.5,4 3.03125,4 3.03125,11.28125 0,7.3125 -3.03125,11.3125 -3.03125,4.015625 -8.5,4.015625 z"
               id="DejaVuSans-Bold-67" />
          </defs>
          <g
             style="fill:none"
             transform="matrix(0,-0.2,-0.2,0,47.585937,251.66875)"
             id="g540">
            <use
               xlink:href="#DejaVuSans-Bold-53"
               id="use518"
               x="0"
               y="0"
               width="100%"
               height="100%"
               style="fill:none" />
            <use
               x="72.021484"
               xlink:href="#DejaVuSans-Bold-63"
               id="use520"
               y="0"
               width="100%"
               height="100%"
               style="fill:none" />
            <use
               x="131.29883"
               xlink:href="#DejaVuSans-Bold-6f"
               id="use522"
               y="0"
               width="100%"
               height="100%"
               style="fill:none" />
            <use
               x="200"
               xlink:href="#DejaVuSans-Bold-72"
               id="use524"
               y="0"
               width="100%"
               height="100%"
               style="fill:none" />
            <use
               x="249.31641"
               xlink:href="#DejaVuSans-Bold-65"
               id="use526"
               y="0"
               width="100%"
               height="100%"
               style="fill:none" />
            <use
               x="317.13867"
               xlink:href="#DejaVuSans-Bold-63"
               id="use528"
               y="0"
               width="100%"
               height="100%"
               style="fill:none" />
            <use
               x="376.41602"
               xlink:href="#DejaVuSans-Bold-68"
               id="use530"
               y="0"
               width="100%"
               height="100%"
               style="fill:none" />
            <use
               x="447.60742"
               xlink:href="#DejaVuSans-Bold-61"
               id="use532"
               y="0"
               width="100%"
               height="100%"
               style="fill:none" />
            <use
               x="515.08789"
               xlink:href="#DejaVuSans-Bold-6e"
               id="use534"
               y="0"
               width="100%"
               height="100%"
               style="fill:none" />
            <use
               x="586.2793"
               xlink:href="#DejaVuSans-Bold-67"
               id="use536"
               y="0"
               width="100%"
               height="100%"
               style="fill:none" />
            <use
               x="657.86133"
               xlink:href="#DejaVuSans-Bold-65"
               id="use538"
               y="0"
               width="100%"
               height="100%"
               style="fill:none" />
          </g>
        </g>
      </g>
      <g
         id="line2d_9"
         style="fill:none">
        <path
           clip-path="url(#p3a0e515215)"
           d="m 369,203.55471 v 0"
           style="fill:none;stroke:#404040;stroke-width:3;stroke-linecap:square"
           id="path544" />
      </g>
      <g
         id="line2d_10"
         style="fill:none">
        <path
           clip-path="url(#p3a0e515215)"
           d="m 369,203.55471 v 0"
           style="fill:none;stroke:#404040;stroke-width:9;stroke-linecap:square"
           id="path547" />
      </g>
      <g
         id="patch_5"
         style="fill:none">
        <path
           d="M 90,315 V 43.2"
           style="fill:none;stroke:#ffffff;stroke-width:3;stroke-linecap:square;stroke-linejoin:miter"
           id="path550" />
      </g>
      <g
         id="PathCollection_1"
         style="fill:none">
        <defs
           id="defs554">
          <path
             d="M 0,3 C 0.795609,3 1.55874,2.683901 2.12132,2.12132 2.683901,1.55874 3,0.795609 3,0 3,-0.795609 2.683901,-1.55874 2.12132,-2.12132 1.55874,-2.683901 0.795609,-3 0,-3 -0.795609,-3 -1.55874,-2.683901 -2.12132,-2.12132 -2.683901,-1.55874 -3,-0.795609 -3,0 -3,0.795609 -2.683901,1.55874 -2.12132,2.12132 -1.55874,2.683901 -0.795609,3 0,3 Z"
             id="m4da744fde0"
             style="stroke:#404040" />
        </defs>
        <g
           clip-path="url(#p3a0e515215)"
           id="g558"
           style="fill:none">
          <use
             style="fill:none;stroke:#404040"
             x="369"
             xlink:href="#m4da744fde0"
             y="203.55472"
             id="use556"
             width="100%"
             height="100%" />
        </g>
      </g>
      <g
         id="legend_1"
         style="fill:none">
        <g
           id="patch_6"
           style="fill:none">
          <path
             d="M 556.45312,95.234375 H 641 q 2,0 2,-2 V 50.2 q 0,-2 -2,-2 h -84.54688 q -2,0 -2,2 v 43.034375 q 0,2 2,2 z"
             style="opacity:0.8;fill:none;stroke:#cccccc;stroke-linejoin:miter"
             id="path561" />
        </g>
        <g
           id="text_10"
           style="fill:none">
          <!-- group -->
          <defs
             id="defs569">
            <path
               d="m 45.40625,27.984375 q 0,9.765625 -4.03125,15.125 -4.015625,5.375 -11.296875,5.375 -7.21875,0 -11.25,-5.375 -4.03125,-5.359375 -4.03125,-15.125 0,-9.71875 4.03125,-15.09375 4.03125,-5.375 11.25,-5.375 7.28125,0 11.296875,5.375 4.03125,5.375 4.03125,15.09375 z M 54.390625,6.78125 q 0,-13.953125 -6.203125,-20.765625 -6.1875,-6.8125 -18.984375,-6.8125 -4.734375,0 -8.9375,0.703125 -4.203125,0.703125 -8.15625,2.171875 V -9.1875 q 3.953125,-2.140625 7.8125,-3.15625 3.859375,-1.03125 7.859375,-1.03125 8.84375,0 13.234375,4.609375 4.390625,4.609375 4.390625,13.9375 V 9.625 Q 42.625,4.78125 38.28125,2.390625 33.9375,0 27.875,0 17.828125,0 11.671875,7.65625 q -6.15625,7.671875 -6.15625,20.328125 0,12.6875 6.15625,20.34375 Q 17.828125,56 27.875,56 q 6.0625,0 10.40625,-2.390625 4.34375,-2.390625 7.125,-7.21875 V 54.6875 h 8.984375 z"
               id="DejaVuSans-67" />
            <path
               d="m 41.109375,46.296875 q -1.515625,0.875 -3.296875,1.28125 Q 36.03125,48 33.890625,48 26.265625,48 22.1875,43.046875 18.109375,38.09375 18.109375,28.8125 V 0 h -9.03125 v 54.6875 h 9.03125 v -8.5 q 2.84375,4.984375 7.375,7.390625 Q 30.03125,56 36.53125,56 q 0.921875,0 2.046875,-0.125 1.125,-0.109375 2.484375,-0.359375 z"
               id="DejaVuSans-72" />
            <path
               d="m 30.609375,48.390625 q -7.21875,0 -11.421875,-5.640625 -4.203125,-5.640625 -4.203125,-15.453125 0,-9.8125 4.171875,-15.453125 4.1875,-5.640625 11.453125,-5.640625 7.1875,0 11.375,5.65625 4.203125,5.671875 4.203125,15.4375 0,9.71875 -4.203125,15.40625 -4.1875,5.6875 -11.375,5.6875 z m 0,7.609375 q 11.71875,0 18.40625,-7.625 6.703125,-7.609375 6.703125,-21.078125 0,-13.421875 -6.703125,-21.078125 -6.6875,-7.640625 -18.40625,-7.640625 -11.765625,0 -18.4375,7.640625 -6.65625,7.65625 -6.65625,21.078125 0,13.46875 6.65625,21.078125 Q 18.84375,56 30.609375,56 Z"
               id="DejaVuSans-6f" />
            <path
               d="M 8.5,21.578125 V 54.6875 h 8.984375 V 21.921875 q 0,-7.765625 3.015625,-11.65625 3.03125,-3.875 9.09375,-3.875 7.265625,0 11.484375,4.640625 4.234375,4.640625 4.234375,12.65625 v 31 h 8.984375 V 0 H 45.3125 V 8.40625 Q 42.046875,3.421875 37.71875,1 33.40625,-1.421875 27.6875,-1.421875 18.265625,-1.421875 13.375,4.4375 8.5,10.296875 8.5,21.578125 Z M 31.109375,56 Z"
               id="DejaVuSans-75" />
            <path
               d="m 18.109375,8.203125 v -29 H 9.078125 V 54.6875 h 9.03125 v -8.296875 q 2.84375,4.875 7.15625,7.234375 Q 29.59375,56 35.59375,56 q 9.96875,0 16.1875,-7.90625 6.234375,-7.90625 6.234375,-20.796875 0,-12.890625 -6.234375,-20.8125 -6.21875,-7.90625 -16.1875,-7.90625 -6,0 -10.328125,2.375 -4.3125,2.375 -7.15625,7.25 z M 48.6875,27.296875 q 0,9.90625 -4.078125,15.546875 -4.078125,5.640625 -11.203125,5.640625 -7.140625,0 -11.21875,-5.640625 -4.078125,-5.640625 -4.078125,-15.546875 0,-9.90625 4.078125,-15.546875 4.078125,-5.640625 11.21875,-5.640625 7.125,0 11.203125,5.640625 4.078125,5.640625 4.078125,15.546875 z"
               id="DejaVuSans-70" />
          </defs>
          <g
             transform="matrix(0.1,0,0,-0.1,584.09609,59.798437)"
             id="g581"
             style="fill:none">
            <use
               xlink:href="#DejaVuSans-67"
               id="use571"
               x="0"
               y="0"
               width="100%"
               height="100%"
               style="fill:none" />
            <use
               x="63.476562"
               xlink:href="#DejaVuSans-72"
               id="use573"
               y="0"
               width="100%"
               height="100%"
               style="fill:none" />
            <use
               x="104.55859"
               xlink:href="#DejaVuSans-6f"
               id="use575"
               y="0"
               width="100%"
               height="100%"
               style="fill:none" />
            <use
               x="165.74023"
               xlink:href="#DejaVuSans-75"
               id="use577"
               y="0"
               width="100%"
               height="100%"
               style="fill:none" />
            <use
               x="229.11914"
               xlink:href="#DejaVuSans-70"
               id="use579"
               y="0"
               width="100%"
               height="100%"
               style="fill:none" />
          </g>
        </g>
        <g
           id="patch_7"
           style="fill:none">
          <path
             d="m 558.45312,74.476562 h 20 v -7 h -20 z"
             style="fill:none;stroke:#404040;stroke-width:1.5;stroke-linejoin:miter"
             id="path584" />
        </g>
        <g
           id="text_11"
           style="fill:none">
          <!-- Control -->
          <defs
             id="defs591">
            <path
               d="M 64.40625,67.28125 V 56.890625 q -4.984375,4.640625 -10.625,6.921875 -5.640625,2.296875 -11.984375,2.296875 -12.5,0 -19.140625,-7.640625 -6.640625,-7.640625 -6.640625,-22.09375 0,-14.40625 6.640625,-22.046875 Q 29.296875,6.6875 41.796875,6.6875 q 6.34375,0 11.984375,2.296875 5.640625,2.296875 10.625,6.9375 V 5.609375 Q 59.234375,2.09375 53.4375,0.328125 q -5.78125,-1.75 -12.21875,-1.75 -16.5625,0 -26.09375,10.125 Q 5.609375,18.84375 5.609375,36.375 q 0,17.578125 9.515625,27.703125 9.53125,10.140625 26.09375,10.140625 6.53125,0 12.3125,-1.734375 5.796875,-1.734375 10.875,-5.203125 z"
               id="DejaVuSans-43" />
            <path
               d="M 54.890625,33.015625 V 0 H 45.90625 v 32.71875 q 0,7.765625 -3.03125,11.609375 -3.03125,3.859375 -9.078125,3.859375 -7.28125,0 -11.484375,-4.640625 -4.203125,-4.625 -4.203125,-12.640625 V 0 h -9.03125 v 54.6875 h 9.03125 v -8.5 q 3.234375,4.9375 7.59375,7.375 4.375,2.4375 10.09375,2.4375 9.421875,0 14.25,-5.828125 4.84375,-5.828125 4.84375,-17.15625 z"
               id="DejaVuSans-6e" />
            <path
               d="M 18.3125,70.21875 V 54.6875 h 18.5 v -6.984375 h -18.5 v -29.6875 q 0,-6.6875 1.828125,-8.59375 1.828125,-1.90625 7.453125,-1.90625 H 36.8125 V 0 H 27.59375 Q 17.1875,0 13.234375,3.875 9.28125,7.765625 9.28125,18.015625 v 29.6875 H 2.6875 V 54.6875 h 6.59375 v 15.53125 z"
               id="DejaVuSans-74" />
            <path
               d="M 9.421875,75.984375 H 18.40625 V 0 H 9.421875 Z"
               id="DejaVuSans-6c" />
          </defs>
          <g
             transform="matrix(0.1,0,0,-0.1,586.45312,74.476562)"
             id="g607"
             style="fill:none">
            <use
               xlink:href="#DejaVuSans-43"
               id="use593"
               x="0"
               y="0"
               width="100%"
               height="100%"
               style="fill:none" />
            <use
               x="69.824219"
               xlink:href="#DejaVuSans-6f"
               id="use595"
               y="0"
               width="100%"
               height="100%"
               style="fill:none" />
            <use
               x="131.00586"
               xlink:href="#DejaVuSans-6e"
               id="use597"
               y="0"
               width="100%"
               height="100%"
               style="fill:none" />
            <use
               x="194.38477"
               xlink:href="#DejaVuSans-74"
               id="use599"
               y="0"
               width="100%"
               height="100%"
               style="fill:none" />
            <use
               x="233.59375"
               xlink:href="#DejaVuSans-72"
               id="use601"
               y="0"
               width="100%"
               height="100%"
               style="fill:none" />
            <use
               x="274.67578"
               xlink:href="#DejaVuSans-6f"
               id="use603"
               y="0"
               width="100%"
               height="100%"
               style="fill:none" />
            <use
               x="335.85742"
               xlink:href="#DejaVuSans-6c"
               id="use605"
               y="0"
               width="100%"
               height="100%"
               style="fill:none" />
          </g>
        </g>
        <g
           id="patch_8"
           style="fill:none">
          <path
             d="m 558.45312,89.154688 h 20 v -7 h -20 z"
             style="fill:none;stroke:#404040;stroke-width:1.5;stroke-linejoin:miter"
             id="path610" />
        </g>
        <g
           id="text_12"
           style="fill:none">
          <!-- Treatment -->
          <defs
             id="defs617">
            <path
               d="M -0.296875,72.90625 H 61.375 v -8.3125 H 35.5 V 0 H 25.59375 V 64.59375 H -0.296875 Z"
               id="DejaVuSans-54" />
            <path
               d="m 56.203125,29.59375 v -4.390625 h -41.3125 q 0.59375,-9.28125 5.59375,-14.140625 5,-4.859375 13.9375,-4.859375 5.171875,0 10.03125,1.265625 4.859375,1.265625 9.65625,3.8125 v -8.5 q -4.84375,-2.046875 -9.921875,-3.125 -5.078125,-1.078125 -10.296875,-1.078125 -13.09375,0 -20.734375,7.609375 -7.640625,7.625 -7.640625,20.625 0,13.421875 7.25,21.296875 Q 20.015625,56 32.328125,56 q 11.03125,0 17.453125,-7.109375 6.421875,-7.09375 6.421875,-19.296875 z m -8.984375,2.640625 q -0.09375,7.359375 -4.125,11.75 -4.03125,4.40625 -10.671875,4.40625 -7.515625,0 -12.03125,-4.25 -4.515625,-4.25 -5.203125,-11.96875 z"
               id="DejaVuSans-65" />
            <path
               d="m 34.28125,27.484375 q -10.890625,0 -15.09375,-2.484375 -4.203125,-2.484375 -4.203125,-8.5 0,-4.78125 3.15625,-7.59375 3.15625,-2.796875 8.5625,-2.796875 7.484375,0 12,5.296875 4.515625,5.296875 4.515625,14.078125 v 2 z m 17.921875,3.71875 V 0 H 43.21875 v 8.296875 q -3.078125,-4.96875 -7.671875,-7.34375 -4.59375,-2.375 -11.234375,-2.375 -8.390625,0 -13.359375,4.71875 Q 6,8.015625 6,15.921875 q 0,9.21875 6.171875,13.90625 6.1875,4.6875 18.4375,4.6875 H 43.21875 v 0.890625 q 0,6.203125 -4.078125,9.59375 -4.078125,3.390625 -11.453125,3.390625 -4.6875,0 -9.140625,-1.125 -4.4375,-1.125 -8.53125,-3.375 v 8.3125 q 4.921875,1.90625 9.5625,2.84375 Q 24.21875,56 28.609375,56 q 11.875,0 17.734375,-6.15625 5.859375,-6.140625 5.859375,-18.640625 z"
               id="DejaVuSans-61" />
            <path
               d="M 52,44.1875 Q 55.375,50.25 60.0625,53.125 64.75,56 71.09375,56 q 8.546875,0 13.1875,-5.984375 4.640625,-5.96875 4.640625,-17 V 0 h -9.03125 v 32.71875 q 0,7.859375 -2.796875,11.65625 -2.78125,3.8125 -8.484375,3.8125 -6.984375,0 -11.046875,-4.640625 -4.046875,-4.625 -4.046875,-12.640625 V 0 h -9.03125 v 32.71875 q 0,7.90625 -2.78125,11.6875 -2.78125,3.78125 -8.59375,3.78125 -6.890625,0 -10.953125,-4.65625 -4.046875,-4.65625 -4.046875,-12.625 V 0 h -9.03125 v 54.6875 h 9.03125 v -8.5 q 3.078125,5.03125 7.375,7.421875 Q 29.78125,56 35.6875,56 41.65625,56 45.828125,52.96875 50,49.953125 52,44.1875 Z"
               id="DejaVuSans-6d" />
          </defs>
          <g
             transform="matrix(0.1,0,0,-0.1,586.45312,89.154688)"
             id="g637"
             style="fill:none">
            <use
               xlink:href="#DejaVuSans-54"
               id="use619"
               x="0"
               y="0"
               width="100%"
               height="100%"
               style="fill:none" />
            <use
               x="60.865234"
               xlink:href="#DejaVuSans-72"
               id="use621"
               y="0"
               width="100%"
               height="100%"
               style="fill:none" />
            <use
               x="101.94727"
               xlink:href="#DejaVuSans-65"
               id="use623"
               y="0"
               width="100%"
               height="100%"
               style="fill:none" />
            <use
               x="163.4707"
               xlink:href="#DejaVuSans-61"
               id="use625"
               y="0"
               width="100%"
               height="100%"
               style="fill:none" />
            <use
               x="224.75"
               xlink:href="#DejaVuSans-74"
               id="use627"
               y="0"
               width="100%"
               height="100%"
               style="fill:none" />
            <use
               x="263.95898"
               xlink:href="#DejaVuSans-6d"
               id="use629"
               y="0"
               width="100%"
               height="100%"
               style="fill:none" />
            <use
               x="361.37109"
               xlink:href="#DejaVuSans-65"
               id="use631"
               y="0"
               width="100%"
               height="100%"
               style="fill:none" />
            <use
               x="422.89453"
               xlink:href="#DejaVuSans-6e"
               id="use633"
               y="0"
               width="100%"
               height="100%"
               style="fill:none" />
            <use
               x="486.27344"
               xlink:href="#DejaVuSans-74"
               id="use635"
               y="0"
               width="100%"
               height="100%"
               style="fill:none" />
          </g>
        </g>
      </g>
    </g>
  </g>
  <defs
     id="defs646">
    <clipPath
       id="p3a0e515215">
      <rect
         height="271.8"
         width="558"
         x="90"
         y="43.2"
         id="rect643" />
    </clipPath>
  </defs>
</svg>
